<svg width="1080" height="1080" xmlns="http://www.w3.org/2000/svg">
 <g id="Layer_1">
  <title>Layer 1</title>
  <rect transform="rotate(39.264 351.355 861.517)" stroke="#000000" id="svg_17" height="873.87466" width="1782.2406" y="424.58016" x="-539.76579" stroke-width="0" fill="#c4c4c4"/>
  <line stroke="#1267c9" id="svg_8" y2="213.83374" x2="485.90814" y1="147.73204" x1="109.01808" stroke-width="48" fill="none"/>
  <line id="svg_9" y2="795.51251" x2="70.68073" y1="148.0549" x1="111.3587" stroke-width="48" stroke="#1267c9" fill="none"/>
  <line id="svg_10" y2="487.14555" x2="465.8112" y1="419.34894" x1="108.18409" stroke-width="48" stroke="#1267c9" fill="none"/>
  <line id="svg_11" y2="744.96097" x2="383.94413" y1="804.283" x1="55.13057" stroke-width="48" stroke="#1267c9" fill="none"/>
  <line id="svg_12" y2="954.02737" x2="414.99068" y1="411.6545" x1="564.14322" stroke-width="48" stroke="#1267c9" fill="none"/>
  <line id="svg_13" y2="713.34941" x2="611.60084" y1="431.99349" x1="567.53305" stroke-width="48" stroke="#1267c9" fill="none"/>
  <line id="svg_14" y2="706.56975" x2="618.3805" y1="498.09518" x1="769.22796" stroke-width="48" stroke="#1267c9" fill="none"/>
  <line id="svg_15" y2="996.40025" x2="847.19406" y1="523.51891" x1="774.3127" stroke-width="48" stroke="#1267c9" fill="none"/>
  <text stroke-width="0" transform="rotate(-4 782.364 259.22) matrix(8.25401 0 0 7.68211 -4998.66 -1254.7)" stroke="#000000" font-weight="bold" font-style="normal" xml:space="preserve" text-anchor="start" font-family="'Sora'" font-size="26" id="svg_16" y="205.93695" x="668.72153" fill="#4a4e54">Chat</text>
  <path d="m435.1033,549.0271c0,0.42194 0.05981,0.84601 0,1.68774c-0.21149,2.97607 -1.31204,8.85516 -2.10968,15.61182c-1.34381,11.38342 -1.47662,17.28632 -1.68777,22.36279c-0.17535,4.21576 0,7.17297 0,9.70465c0,2.53162 0,3.79742 0,5.06323l0,0.422l0,0.42194l0,0.42194" id="svg_23" stroke-width="49" fill="none"/>
 </g>

</svg>